HIERARCHY
ROOT Hips
{
	OFFSET	0.000000	0.000000	0.000000
	CHANNELS 6 Xposition Yposition Zposition Zrotation Xrotation Yrotation
	JOINT LeftHip
	{
		OFFSET	11.298960	-8.380145	1.031225
		CHANNELS 3 Zrotation Xrotation Yrotation
		JOINT LeftKnee
		{
			OFFSET	-1.779039	-39.577010	0.417431
			CHANNELS 3 Zrotation Xrotation Yrotation
			JOINT LeftAnkle
			{
				OFFSET	0.890862	-42.943018	-6.321374
				CHANNELS 3 Zrotation Xrotation Yrotation
				JOINT LeftAnkleEnd
				{
					OFFSET	-0.632740	-5.685484	-5.621922
					CHANNELS 3 Zrotation Xrotation Yrotation
					End Site
					{
						OFFSET	0.012764	-1.270000	17.907023
					}
				}
			}
		}
	}
	JOINT RightHip
	{
		OFFSET	-11.298960	-8.380145	1.031225
		CHANNELS 3 Zrotation Xrotation Yrotation
		JOINT RightKnee
		{
			OFFSET	1.779039	-39.577010	0.417431
			CHANNELS 3 Zrotation Xrotation Yrotation
			JOINT RightAnkle
			{
				OFFSET	-0.890862	-42.943018	-6.321374
				CHANNELS 3 Zrotation Xrotation Yrotation
				JOINT RightAnkleEnd
				{
					OFFSET	0.632740	-5.685484	-5.621922
					CHANNELS 3 Zrotation Xrotation Yrotation
					End Site
					{
						OFFSET	-0.012764	-1.270000	17.907023
					}
				}
			}
		}
	}
	JOINT Chest
	{
		OFFSET	0.000013	6.720637	2.223076
		CHANNELS 3 Zrotation Xrotation Yrotation
		JOINT Chest1
		{
			OFFSET	-0.073051	18.182640	-2.749017
			CHANNELS 3 Zrotation Xrotation Yrotation
			JOINT LeftCollar
			{
				OFFSET	7.790763	29.076902	-2.820492
				CHANNELS 3 Zrotation Xrotation Yrotation
				JOINT LeftShoulder
				{
					OFFSET	13.187018	-7.309688	1.779387
					CHANNELS 3 Zrotation Xrotation Yrotation
					JOINT LeftElbow
					{
						OFFSET	3.671976	-29.168340	5.964022
						CHANNELS 3 Zrotation Xrotation Yrotation
						JOINT LeftWrist
						{
							OFFSET	0.572018	-25.624790	10.228225
							CHANNELS 3 Zrotation Xrotation Yrotation
							End Site
							{
								OFFSET	-1.779270	-8.879179	2.542515
							}
						}
					}
				}
			}
			JOINT RightCollar
			{
				OFFSET	-7.644689	29.076902	-2.820492
				CHANNELS 3 Zrotation Xrotation Yrotation
				JOINT RightShoulder
				{
					OFFSET	-13.187018	-7.309688	1.779387
					CHANNELS 3 Zrotation Xrotation Yrotation
					JOINT RightElbow
					{
						OFFSET	-3.671976	-29.168340	5.964022
						CHANNELS 3 Zrotation Xrotation Yrotation
						JOINT RightWrist
						{
							OFFSET	-0.572018	-25.624790	10.228225
							CHANNELS 3 Zrotation Xrotation Yrotation
							End Site
							{
								OFFSET	1.779270	-8.879179	2.542515
							}
						}
					}
				}
			}
			JOINT Neck
			{
				OFFSET	-0.441376	29.919930	-1.795122
				CHANNELS 3 Zrotation Xrotation Yrotation
				JOINT Head
				{
					OFFSET	-0.451988	10.184461	3.285312
					CHANNELS 3 Zrotation Xrotation Yrotation
					End Site
					{
						OFFSET	-0.448112	13.050622	-3.935146
					}
				}
			}
		}
	}
}
MOTION
Frames:     9
Frame Time: 0.008333
59.867028	83.331308	-60.054599	-3.513474	6.464254	-10.388213	40.918495	-49.132195	33.993305	-10.854102	10.824906	27.844099	-3.308930	21.167608	18.433294	0.	0.	0.	-13.458198	-4.461492	-10.640100	4.979662	48.764397	-7.681009	11.681304	-19.318205	12.187100	0.	0.	0.	-11.658898	14.842201	0.525249	0.077789	-6.720531	9.187269	5.019381	1.259170	4.980120	19.198500	21.045801	37.482601	5.341840	-22.422903	-9.088650	18.476200	-8.665668	0.927549	-0.214275	-4.867981	-0.184923	-6.359448	-8.030192	-11.350200	65.627403	-42.976311	33.395599	-24.500401	-15.544807	-16.603605	2.111042	-11.387803	1.377230	0.719032	6.864540	-3.700279	
60.194900	82.815729	-61.006164	-3.488536	5.755559	-10.778738	41.270100	-48.649113	33.996399	-11.605600	11.252895	29.301905	-2.125314	20.531096	18.833401	0.	0.	0.	-13.636197	-4.636660	-10.869499	4.388260	49.857712	-6.899871	11.927201	-22.108805	11.489601	0.	0.	0.	-10.724899	15.273803	0.780717	0.209029	-6.605812	8.869080	4.780951	1.127648	5.303902	17.296101	21.612007	36.948902	5.205340	-22.449596	-8.222704	18.468397	-8.533066	1.393423	-0.605902	-4.309783	-0.311678	-5.362809	-8.322255	-11.110499	62.550594	-42.967915	29.778105	-24.865402	-16.363403	-17.962898	1.879720	-11.113004	1.315272	-0.258337	7.041340	-2.942828	
60.525127	82.211066	-61.906589	-3.446882	5.045052	-11.145251	41.662205	-48.168999	34.060398	-12.516600	11.817899	30.851204	-0.833159	19.996199	19.116201	0.	0.	0.	-13.822402	-4.820030	-11.024799	3.706063	51.002399	-5.893957	12.359201	-24.906502	10.774603	0.	0.	0.	-9.805471	15.722102	1.036721	0.348351	-6.493747	8.551963	4.536469	0.952340	5.568192	15.461300	22.148706	36.494602	5.055571	-22.479198	-7.396077	18.457899	-8.411563	1.872733	-0.996531	-3.736508	-0.460324	-4.492673	-8.669370	-11.016697	59.469700	-42.869408	26.077402	-25.268105	-17.123905	-19.349197	1.646269	-10.860600	1.251493	-1.270500	7.218309	-2.206367	
60.865887	81.540254	-62.746673	-3.387720	4.336730	-11.472593	42.056995	-47.702099	34.157906	-13.583599	12.500201	32.429100	0.479100	19.606497	19.239994	0.	0.	0.	-14.022799	-5.008232	-11.105999	2.937994	52.178505	-4.694967	12.960202	-27.637304	10.073400	0.	0.	0.	-8.918661	16.182098	1.288740	0.508700	-6.395863	8.239339	4.282329	0.750377	5.763529	13.710097	22.644297	36.123802	4.886855	-22.499603	-6.617859	18.448494	-8.303691	2.363469	-1.381941	-3.150111	-0.634993	-3.755771	-9.077152	-11.083701	56.420006	-42.647907	22.328804	-25.710497	-17.817499	-20.751997	1.407030	-10.622703	1.178419	-2.304089	7.395081	-1.498070	
61.226383	80.827473	-63.521514	-3.310819	3.635603	-11.742058	42.417599	-47.261406	34.263103	-14.796401	13.278198	33.963406	1.713577	19.393799	19.164799	0.	0.	0.	-14.246299	-5.197581	-11.118900	2.102749	53.368107	-3.356612	13.705903	-30.235403	9.417836	0.	0.	0.	-8.079898	16.649099	1.529160	0.702917	-6.323672	7.933461	4.014191	0.542381	5.881850	12.058799	23.084898	35.828300	4.697210	-22.502697	-5.889791	18.444202	-8.210738	2.862319	-1.758649	-2.551261	-0.838908	-3.161299	-9.548442	-11.323900	53.441097	-42.281700	18.575304	-26.194597	-18.435396	-22.160599	1.156801	-10.389001	1.088630	-3.343920	7.569850	-0.823714	
61.614853	80.096738	-64.231825	-3.216547	2.946396	-11.932866	42.711998	-46.862503	34.354305	-16.137802	14.131801	35.378403	2.769261	19.374397	18.858107	0.	0.	0.	-14.504298	-5.383610	-11.075400	1.232871	54.556095	-1.951259	14.567303	-32.645306	8.839151	0.	0.	0.	-7.299870	17.118200	1.747010	0.941955	-6.287171	7.635978	3.727591	0.349881	5.917150	10.522901	23.456205	35.587505	4.488349	-22.485399	-5.207273	18.449394	-8.132616	3.364576	-2.124219	-1.939971	-1.074430	-2.719818	-10.082603	-11.745000	50.572094	-41.762806	14.862403	-26.722403	-18.968599	-23.563200	0.889977	-10.148902	0.975101	-4.374350	7.740016	-0.187426	
62.035263	79.369093	-64.881858	-3.105944	2.273640	-12.023868	42.916401	-46.521496	34.415401	-17.583498	15.044601	36.601295	3.548301	19.548004	18.300697	0.	0.	0.	-14.808398	-5.560929	-10.992399	0.372613	55.732807	-0.563838	15.512099	-34.823803	8.365059	0.	0.	0.	-6.583339	17.584694	1.928290	1.233370	-6.293303	7.348740	3.418620	0.192758	5.865850	9.117249	23.746395	35.370602	4.265289	-22.449495	-4.561247	18.468700	-8.067761	3.864225	-2.477330	-1.316441	-1.343101	-2.441740	-10.674901	-12.348101	47.846191	-41.097996	11.234300	-27.295599	-19.408194	-24.946404	0.601630	-9.892690	0.831529	-5.380378	7.902790	0.408403	
62.486926	78.661961	-65.479185	-2.980829	1.621076	-11.995166	43.017494	-46.253796	34.437099	-19.103302	16.004604	37.569500	3.961951	19.899101	17.490799	0.	0.	0.	-15.169198	-5.723131	-10.891202	-0.426354	56.893288	0.716581	16.505697	-36.740307	8.017009	0.	0.	0.	-5.929010	18.043802	2.056870	1.580270	-6.344932	7.074291	3.084570	0.086987	5.726951	7.855201	23.947302	35.139599	4.035468	-22.402708	-3.940697	18.506701	-8.013154	4.354272	-2.817579	-0.682046	-1.645740	-2.335589	-11.316201	-13.127000	45.286793	-40.308491	7.730220	-27.915304	-19.745497	-26.294300	0.288537	-9.613481	0.652577	-6.348229	8.055549	0.962921	
62.964823	77.988189	-66.032635	-2.843797	0.991454	-11.830416	43.013100	-46.071495	34.416000	-20.663401	17.002302	38.237206	3.935801	20.398905	16.446598	0.	0.	0.	-15.594803	-5.863141	-10.794797	-1.110746	58.037205	1.806163	17.512302	-38.376499	7.807122	0.	0.	0.	-5.330260	18.490894	2.115932	1.980890	-6.440341	6.816331	2.724411	0.042979	5.501890	6.748052	24.056091	34.854095	3.807591	-22.357597	-3.335351	18.567205	-7.964571	4.827131	-3.145320	-0.040146	-1.982490	-2.406141	-11.993502	-14.067900	42.906300	-39.426895	4.382757	-28.580408	-19.971796	-27.587992	-0.050168	-9.307903	0.433984	-7.265821	8.196216	1.476489	
